<svg xmlns="http://www.w3.org/2000/svg" viewBox="0 0 64 64" role="img" aria-label="Decibel">
  <defs>
    <linearGradient id="dbg" x1="8" y1="6" x2="56" y2="58" gradientUnits="userSpaceOnUse">
      <stop offset="0" stop-color="#1e4fdf"/>
      <stop offset=".58" stop-color="#2f6bff"/>
      <stop offset="1" stop-color="#22d3a5"/>
    </linearGradient>
    <radialGradient id="dsheen" cx="0" cy="0" r="1" gradientTransform="translate(20 16) rotate(43) scale(42 38)" gradientUnits="userSpaceOnUse">
      <stop offset="0" stop-color="#ffffff" stop-opacity=".34"/>
      <stop offset="1" stop-color="#ffffff" stop-opacity="0"/>
    </radialGradient>
    <linearGradient id="dmark" x1="18" y1="16" x2="48" y2="48" gradientUnits="userSpaceOnUse">
      <stop offset="0" stop-color="#ffffff"/>
      <stop offset=".72" stop-color="#ecf5ff"/>
      <stop offset="1" stop-color="#c9ffef"/>
    </linearGradient>
  </defs>
  <rect x="2" y="2" width="60" height="60" rx="18" fill="url(#dbg)"/>
  <rect x="2" y="2" width="60" height="60" rx="18" fill="url(#dsheen)"/>
  <g fill="none" stroke="url(#dmark)" stroke-linecap="round" stroke-linejoin="round">
    <path d="M21 18v28" stroke-width="6.5"/>
    <path d="M26 18C38.5 18 46 23.6 46 32S38.5 46 26 46" stroke-width="5.5"/>
    <path d="M26 24.5C34.2 24.5 39.5 27.4 39.5 32S34.2 39.5 26 39.5" stroke-width="4.5" opacity=".92"/>
    <path d="M26 29C30.6 29 33.5 30.3 33.5 32S30.6 35 26 35" stroke-width="3.8" opacity=".82"/>
  </g>
</svg>
