<svg xmlns="http://www.w3.org/2000/svg" viewBox="0 0 320 80" role="img" aria-label="Decibel">
  <defs>
    <linearGradient id="l-bg" x1="10" y1="10" x2="60" y2="68" gradientUnits="userSpaceOnUse">
      <stop offset="0" stop-color="#1e4fdf"/>
      <stop offset=".58" stop-color="#2f6bff"/>
      <stop offset="1" stop-color="#22d3a5"/>
    </linearGradient>
    <radialGradient id="l-sheen" cx="0" cy="0" r="1" gradientTransform="translate(24 20) rotate(43) scale(48 42)" gradientUnits="userSpaceOnUse">
      <stop offset="0" stop-color="#ffffff" stop-opacity=".34"/>
      <stop offset="1" stop-color="#ffffff" stop-opacity="0"/>
    </radialGradient>
    <linearGradient id="l-mark" x1="20" y1="18" x2="52" y2="52" gradientUnits="userSpaceOnUse">
      <stop offset="0" stop-color="#ffffff"/>
      <stop offset=".72" stop-color="#ecf5ff"/>
      <stop offset="1" stop-color="#c9ffef"/>
    </linearGradient>
  </defs>
  <rect x="4" y="8" width="64" height="64" rx="20" fill="url(#l-bg)"/>
  <rect x="4" y="8" width="64" height="64" rx="20" fill="url(#l-sheen)"/>
  <g fill="none" stroke="url(#l-mark)" stroke-linecap="round" stroke-linejoin="round">
    <path d="M25 24v32" stroke-width="7"/>
    <path d="M30 24C43 24 51 30.4 51 40S43 56 30 56" stroke-width="5.8"/>
    <path d="M30 31C38.5 31 44 34.1 44 40S38.5 49 30 49" stroke-width="4.8" opacity=".92"/>
    <path d="M30 36C34.8 36 38 37.6 38 40S34.8 44 30 44" stroke-width="4" opacity=".82"/>
  </g>
  <text x="88" y="39"
        font-family="'Space Grotesk', 'Inter', system-ui, sans-serif"
        font-weight="700" font-size="34" letter-spacing="-0.8"
        fill="#0e1530">Decibel</text>
  <text x="90" y="58"
        font-family="'Inter', system-ui, sans-serif"
        font-weight="700" font-size="10" letter-spacing="2.8"
        fill="#6b7693">SENALES CLARAS</text>
</svg>
